<svg width="26" height="26" viewBox="0 0 26 26" fill="none" xmlns="http://www.w3.org/2000/svg">
<path d="M13.0018 25C15.6643 24.9996 18.2511 24.1137 20.3549 22.4818C22.4588 20.8499 23.9601 18.5646 24.6226 15.9858C25.2851 13.407 25.0711 10.6811 24.0143 8.23726C22.9576 5.7934 21.1181 3.7704 18.7854 2.48674C16.4527 1.20308 13.7594 0.731664 11.1294 1.14671C8.49938 1.56177 6.08211 2.83971 4.25812 4.77935C2.43412 6.71899 1.30701 9.21017 1.05422 11.8607C0.801433 14.5112 1.43732 17.1705 2.86179 19.42L1.00179 25L6.58178 23.14C8.50115 24.3583 10.7284 25.0036 13.0018 25Z" fill="#333333" stroke="#333333" stroke-width="2" stroke-linecap="round" stroke-linejoin="round"/>
</svg>
