<svg width="24" height="24" viewBox="0 0 24 24" fill="none" xmlns="http://www.w3.org/2000/svg">
<path d="M22.7052 12.3535V12.3536V21.6295C22.7052 21.993 22.5608 22.3416 22.3038 22.5986C22.0468 22.8556 21.6982 23 21.3347 23H2.37052C2.00704 23 1.65844 22.8556 1.40142 22.5986C1.14439 22.3416 1 21.993 1 21.6295V12.3536V12.3535C0.999946 11.8443 1.10385 11.3404 1.30536 10.8727C1.50687 10.4051 1.80173 9.98348 2.17188 9.63377L2.172 9.63366L10.9109 1.37475L10.9111 1.37462C11.1655 1.13405 11.5024 1 11.8526 1C12.2028 1 12.5397 1.13405 12.7942 1.37462L12.7943 1.37475L21.5332 9.63366L21.5334 9.63377C21.9035 9.98348 22.1984 10.4051 22.3999 10.8727C22.6014 11.3404 22.7053 11.8443 22.7052 12.3535Z" fill="#333333" stroke="#333333" stroke-width="2" stroke-linecap="round" stroke-linejoin="round"/>
</svg>
